<svg width="24" height="24" viewBox="0 0 24 24" fill="none" xmlns="http://www.w3.org/2000/svg">
<path d="M1.99994 2H3.73994C4.81994 2 5.66994 2.93 5.57994 4L4.74994 13.96C4.60994 15.59 5.89993 16.99 7.53993 16.99H18.1899C19.6299 16.99 20.8899 15.81 20.9999 14.38L21.5399 6.88C21.6599 5.22 20.3999 3.87 18.7299 3.87H5.81995" stroke="white" stroke-width="1.5" stroke-miterlimit="10" stroke-linecap="round" stroke-linejoin="round"/>
<path d="M16.2499 22C16.9403 22 17.4999 21.4404 17.4999 20.75C17.4999 20.0596 16.9403 19.5 16.2499 19.5C15.5596 19.5 14.9999 20.0596 14.9999 20.75C14.9999 21.4404 15.5596 22 16.2499 22Z" stroke="white" stroke-width="1.5" stroke-miterlimit="10" stroke-linecap="round" stroke-linejoin="round"/>
<path d="M8.24994 22C8.94029 22 9.49994 21.4404 9.49994 20.75C9.49994 20.0596 8.94029 19.5 8.24994 19.5C7.55958 19.5 6.99994 20.0596 6.99994 20.75C6.99994 21.4404 7.55958 22 8.24994 22Z" stroke="white" stroke-width="1.5" stroke-miterlimit="10" stroke-linecap="round" stroke-linejoin="round"/>
<path d="M8.99994 8H20.9999" stroke="white" stroke-width="1.5" stroke-miterlimit="10" stroke-linecap="round" stroke-linejoin="round"/>
</svg>
